<svg xmlns="http://www.w3.org/2000/svg" aria-hidden="true" style="position:absolute;width:0;height:0;overflow:hidden"><defs>
<symbol id="icon-arrow-right" viewBox="0 0 39 32"><path stroke-linecap="round" stroke-linejoin="round" stroke-width="3.429" d="M36.571 16.055H2.285M22.743 2.286s13.829 7.451 13.829 13.767c0 6.318-13.829 13.774-13.829 13.774"/></symbol>
<symbol id="icon-arrow-left" viewBox="0 0 39 32"><path stroke-linecap="round" stroke-linejoin="round" stroke-width="3.429" d="M2.286 15.945h34.286M16.114 29.714S2.285 22.263 2.285 15.947c0-6.318 13.829-13.774 13.829-13.774"/></symbol>
<symbol id="icon-facebook" viewBox="0 0 17 32"><path d="M11.2 18.4h4l1.6-6.4h-5.6V8.8c0-1.647 0-3.2 3.2-3.2h2.4V.224A43.54 43.54 0 0 0 12.311 0h-.088.005C7.885 0 4.8 2.652 4.8 7.52V12H0v6.4h4.8V32h6.4V18.4z"/></symbol>
<symbol id="icon-google" viewBox="0 0 32 32"><path d="M1.701 8.816C4.39 3.546 9.778 0 15.994 0H16c4.312 0 7.933 1.584 10.704 4.168l-4.587 4.587C20.458 7.174 18.346 6.366 16 6.366c-4.168 0-7.696 2.816-8.952 6.597-.32.96-.501 1.984-.501 3.04s.181 2.08.501 3.04c1.259 3.779 4.784 6.595 8.952 6.595 2.152 0 3.984-.568 5.419-1.528a7.379 7.379 0 0 0 3.185-4.784l.007-.046H16v-6.187h15.067c.192 1.045.293 2.133.293 3.269 0 4.875-1.744 8.976-4.773 11.76-2.643 2.445-6.267 3.877-10.587 3.877h-.011c-8.834 0-15.995-7.161-15.995-15.995 0-2.622.631-5.096 1.749-7.28l-.042.09z"/></symbol>
<symbol id="icon-calendar" viewBox="0 0 30 32"><path stroke-linecap="round" stroke-linejoin="round" stroke-width="2.667" d="M1.909 12.308H27.26m-6.364 5.555h.012m-6.323 0h.012m-6.337 0h.014m12.622 5.527h.012m-6.323 0h.012m-6.337 0h.014M20.329 1.778v4.681M8.839 1.778v4.681M20.604 4.023H8.565c-4.18 0-6.788 2.327-6.788 6.604v12.871c0 4.341 2.608 6.724 6.786 6.724h12.028c4.19 0 6.786-2.34 6.786-6.617V10.627c.012-4.277-2.583-6.604-6.773-6.604z"/></symbol>
<symbol id="icon-location" viewBox="0 0 28 32"><path stroke-linecap="round" stroke-linejoin="round" stroke-width="2.667" d="M17.58 13.63v-.001a3.95 3.95 0 0 0-7.9-.001v.001a3.95 3.95 0 0 0 7.9.001z"/><path stroke-linecap="round" stroke-linejoin="round" stroke-width="2.667" d="M13.628 30.222c-1.893 0-11.851-8.062-11.851-16.492 0-6.601 5.305-11.952 11.851-11.952S25.48 7.129 25.48 13.73c0 8.43-9.957 16.492-11.852 16.492z"/></symbol>
<symbol id="icon-quotes" viewBox="0 0 34 32"><path d="M9.402 1.857C6.026 3.598 3.133 6.545 1.768 9.651.509 12.491.24 14.526.08 22.508c-.134 6.857-.106 7.474.322 7.955.455.51.857.536 6.722.536 6.135 0 6.241 0 6.643-.59.349-.509.429-1.607.429-6.535 0-7.313.24-6.885-3.991-7.018l-2.866-.107.214-1.768c.269-2.169 1.474-4.767 2.759-5.893.51-.455 1.501-1.152 2.197-1.554 2.518-1.446 2.599-1.633 1.554-4.043C12.804.678 12.134.437 9.402 1.857zm19.687-.026c-3.536 1.821-6.214 4.499-7.714 7.634-1.312 2.785-1.581 4.874-1.741 13.043-.134 6.857-.107 7.474.32 7.955.457.51.885.536 6.697.536 5.68 0 6.241-.054 6.643-.482.401-.429.455-1.286.455-6.536 0-7.446.241-6.991-4.045-7.125l-2.92-.107.161-1.097c.59-4.179 1.955-6.349 5.063-8.09 1.768-.991 2.277-1.446 2.277-2.035 0-.509-1.366-3.509-1.874-4.126-.51-.616-1.581-.481-3.322.43z"/></symbol><symbol id="icon-basket" viewBox="0 0 34 32"><path stroke-linecap="round" stroke-linejoin="round" stroke-width="2.667" d="m1.778 1.778 3.28.569 1.518 18.087a2.836 2.836 0 0 0 2.837 2.606h17.203a2.838 2.838 0 0 0 2.807-2.422l.002-.015 1.497-10.34a2.115 2.115 0 0 0-1.776-2.393l-.012-.001c-.103-.014-23.552-.023-23.552-.023m14.13 5.827h4.372M8.722 28.505a.858.858 0 1 1 0 1.716.858.858 0 1 1 0-1.716zm17.785 0a.859.859 0 1 1 0 1.718.859.859 0 1 1 0-1.718z"/></symbol><symbol id="icon-instagram" viewBox="0 0 32 32"><path d="M16 11.2a4.8 4.8 0 1 0 0 9.6 4.8 4.8 0 1 0 0-9.6zM16 8a8 8 0 0 1 0 16 8 8 0 0 1 0-16zm10.4-.401a2 2 0 1 1-4 0 2 2 0 1 1 4 0zM16 3.2c-3.958 0-4.603.012-6.447.094-1.255.059-2.095.226-2.878.532a4.656 4.656 0 0 0-1.728 1.122 4.632 4.632 0 0 0-1.125 1.728c-.305.785-.473 1.625-.529 2.88-.084 1.765-.094 2.383-.094 6.444 0 3.958.012 4.603.094 6.447.059 1.253.226 2.095.529 2.875a4.653 4.653 0 0 0 1.122 1.728 4.685 4.685 0 0 0 1.728 1.125c.79.305 1.632.475 2.88.532 1.767.084 2.385.094 6.447.094 3.958 0 4.603-.012 6.447-.094 1.25-.059 2.092-.226 2.875-.529a4.693 4.693 0 0 0 1.728-1.122 4.635 4.635 0 0 0 1.114-1.696l.011-.032c.305-.788.475-1.632.532-2.88.084-1.767.094-2.385.094-6.447 0-3.958-.012-4.603-.094-6.447-.059-1.25-.226-2.095-.532-2.878a4.682 4.682 0 0 0-1.124-1.727l-.001-.001a4.614 4.614 0 0 0-1.696-1.114l-.032-.01c-.783-.305-1.625-.473-2.875-.529-1.77-.084-2.385-.094-6.447-.094zM16 0c4.347 0 4.889.015 6.597.096 1.703.079 2.863.347 3.884.743a7.778 7.778 0 0 1 2.833 1.846 7.863 7.863 0 0 1 1.846 2.836c.394 1.019.665 2.178.743 3.884.074 1.706.096 2.247.096 6.594s-.017 4.889-.096 6.597c-.081 1.703-.35 2.863-.743 3.884a7.864 7.864 0 0 1-1.845 2.832l-.001.001a7.902 7.902 0 0 1-2.836 1.846c-1.019.394-2.178.665-3.884.743-1.706.074-2.247.096-6.594.096s-4.889-.017-6.597-.096c-1.703-.081-2.863-.35-3.882-.743a7.863 7.863 0 0 1-2.834-1.845l-.001-.001a7.852 7.852 0 0 1-1.828-2.782l-.018-.054C.444 25.46.175 24.301.099 22.595c-.076-1.708-.098-2.25-.098-6.597s.015-4.889.096-6.597C.176 7.698.444 6.538.84 5.519a7.79 7.79 0 0 1 1.846-2.836A7.807 7.807 0 0 1 5.522.837C6.541.441 7.7.172 9.404.096c1.708-.076 2.25-.098 6.597-.098z"/></symbol><symbol id="icon-linkedin" viewBox="0 0 34 32"><path d="M7.111 3.557a3.555 3.555 0 0 1-7.112-.002v-.001a3.555 3.555 0 0 1 7.112.002v.001zm.106 6.186H.106V32H7.22V9.743zm11.235 0h-7.074V32h7.003V20.32c0-6.506 8.48-7.109 8.48 0V32h7.023V17.903c0-10.969-12.551-10.56-15.503-5.172l.074-2.988z"/></symbol><symbol id="icon-logo-img" viewBox="0 0 29 32"><path d="M.858 14.25c-1.338 2.606-1.015 4.888.298 6.2 1.618 1.752-1.26-1.754 9.348-8.18C18.99 7.128 17.35 1.948 15.47 0c0 1.915-.758 3.536-1.966 4.842C9.88 8.764 3.296 9.499.858 14.25zm5.88 5.258c-1.338 2.605-1.015 4.887.298 6.2 1.618 1.752-1.259-1.754 9.348-8.18 8.486-5.142 6.846-10.322 4.966-12.27 0 1.914-.758 3.536-1.966 4.842-3.624 3.922-10.208 4.657-12.646 9.408zm5.878 5.843c-1.336 2.605-1.014 4.887.298 6.2 1.618 1.752-1.259-1.754 9.348-8.181 8.486-5.142 6.846-10.322 4.966-12.27 0 1.915-.758 3.536-1.966 4.842-3.624 3.922-10.208 4.658-12.646 9.408z"/></symbol><symbol id="icon-logo" viewBox="0 0 165 32"><path d="M40.856 25.871h9.9v-3.898h-9.899v3.898zm0-15.733h9.9V6.24h-9.899v3.898zm0 7.32h9.339v-3.814h-9.338v3.814zM37.716 6.24v19.631h4.544V6.239h-4.544zM62.83 17.962 58.035 6.24H52.51l10.32 20.865L73.179 6.24h-5.553L62.83 17.962zm15.548 7.909h9.899v-3.898h-9.899v3.898zm0-15.733h9.899V6.24h-9.899v3.898zm0 7.32h9.338v-3.814h-9.338v3.814zM75.236 6.24v19.631h4.544V6.239h-4.544zm30.444 0v11.05L92.134 5.258v20.614h4.543v-11.05l13.574 12.031V6.24h-4.571zm6.757 4.234h5.385v15.398h4.74V10.474h5.412V6.24h-15.537v4.234zm20.825 15.397h9.9v-3.898h-9.9v3.898zm0-15.733h9.9V6.24h-9.9v3.898zm0 7.32h9.339v-3.814h-9.339v3.814zM130.121 6.24v19.631h4.543V6.239h-4.543zm27.667 0-3.141 5.693-3.029-5.693h-5.862l6.03 9.563-6.73 10.068h5.861l3.702-6.534 3.59 6.534h5.861l-6.59-10.068 6.17-9.563h-5.862zM.858 14.25c-1.338 2.606-1.015 4.888.298 6.2 1.618 1.752-1.26-1.754 9.348-8.18C18.99 7.128 17.35 1.948 15.47 0c0 1.915-.758 3.536-1.966 4.842C9.88 8.764 3.296 9.499.858 14.25zm5.88 5.258c-1.338 2.605-1.015 4.887.298 6.2 1.618 1.752-1.259-1.754 9.348-8.18 8.486-5.142 6.846-10.322 4.966-12.27 0 1.914-.758 3.536-1.966 4.842-3.624 3.922-10.208 4.657-12.646 9.408zm5.878 5.843c-1.336 2.605-1.014 4.887.298 6.2 1.618 1.752-1.259-1.754 9.348-8.181 8.486-5.142 6.846-10.322 4.966-12.27 0 1.915-.758 3.536-1.966 4.842-3.624 3.922-10.208 4.658-12.646 9.408z"/></symbol><symbol id="icon-search" viewBox="0 0 32 32"><path stroke-linecap="round" stroke-linejoin="round" stroke-width="2.667" d="M28.38 15.079c0 7.346-5.955 13.301-13.301 13.301S1.778 22.425 1.778 15.079 7.733 1.778 15.079 1.778 28.38 7.733 28.38 15.079zM24.331 25.02l5.214 5.202"/></symbol><symbol id="icon-logo-text" viewBox="0 0 182 32"><path d="M4.651 30.102h14.143v-5.569H4.652v5.569zm0-22.477h14.143V2.057H4.652v5.568zm0 10.457h13.342v-5.448H4.652v5.448zM.166 2.057v28.045h6.491V2.056H.163zm35.877 16.746-6.85-16.746H21.3l14.743 29.807L50.827 2.057h-7.933l-6.851 16.746zm22.211 11.299h14.142v-5.569H58.254v5.569zm0-22.477h14.142V2.057H58.254v5.568zm0 10.457h13.341v-5.448H58.254v5.448zM53.766 2.057v28.045h6.491V2.056h-6.491zm43.491 0v15.785L77.906.653v29.449h6.49V14.316l19.391 17.187V2.056h-6.53zm9.653 6.049h7.693v21.997h6.771V8.106h7.731V2.057h-22.194v6.049zm29.749 21.996h14.143v-5.569h-14.143v5.569zm0-22.477h14.143V2.057h-14.143v5.568zm0 10.457h13.342v-5.448h-13.342v5.448zm-4.486-16.025v28.045h6.49V2.056h-6.49zm39.524 0-4.487 8.133-4.327-8.133h-8.374l8.614 13.662-9.615 14.383h8.373l5.289-9.335 5.128 9.335h8.373l-9.415-14.383 8.815-13.662h-8.374z"/></symbol><symbol id="icon-twitter" viewBox="0 0 40 32"><path d="M39.355 3.8a15.75 15.75 0 0 1-4.559 1.262l-.078.008A8.144 8.144 0 0 0 38.254.661l.016-.057a15.863 15.863 0 0 1-5.025 1.94l-.103.017a8.075 8.075 0 0 0-13.749 7.421l-.011-.055A22.91 22.91 0 0 1 2.777 1.531l-.032-.041a7.978 7.978 0 0 0-1.097 4.064 8.067 8.067 0 0 0 3.562 6.697l.029.018a8.013 8.013 0 0 1-3.699-1.032l.04.021v.101a8.084 8.084 0 0 0 6.428 7.911l.052.009a8.167 8.167 0 0 1-3.653.136c1.061 3.236 4.026 5.544 7.539 5.611h.008a16.102 16.102 0 0 1-10.013 3.463c-.683 0-1.357-.042-2.018-.124l.079.008c3.492 2.276 7.765 3.629 12.355 3.629h.023-.001c14.853 0 22.976-12.304 22.976-22.976 0-.347-.008-.699-.027-1.043a16.543 16.543 0 0 0 3.995-4.123l.037-.058z"/></symbol><symbol id="icon-small-arrow-down" viewBox="0 0 53 32"><path d="M26.187 20.363 46.544 0l5.813 5.813L26.186 32-.001 5.813 5.812 0l20.373 20.363z"/></symbol><symbol id="icon-small-arrow-right" viewBox="0 0 19 32"><path d="M12.218 15.712 0 3.488 3.488 0 19.2 15.712 3.488 31.414 0 27.929l12.218-12.221z"/></symbol></defs></svg>